<svg xmlns="http://www.w3.org/2000/svg" xmlns:xlink="http://www.w3.org/1999/xlink" width="1500" zoomAndPan="magnify"
    viewBox="0 0 1125 262.499992" height="350" preserveAspectRatio="xMidYMid meet" version="1.0">
    <defs>
        <g />
        <clipPath id="7f70c1ab0a">
            <path d="M 27.269531 117 L 260.824219 117 L 260.824219 193 L 27.269531 193 Z M 27.269531 117 "
                clip-rule="nonzero" />
        </clipPath>
        <clipPath id="2387b42630">
            <path d="M 27.269531 150 L 260.824219 150 L 260.824219 226 L 27.269531 226 Z M 27.269531 150 "
                clip-rule="nonzero" />
        </clipPath>
    </defs>
    <path fill="#26a8f4"
        d="M 144.046875 159.292969 C 142.667969 159.285156 141.371094 158.953125 140.15625 158.296875 L 33.648438 101.28125 C 32.964844 100.921875 32.347656 100.472656 31.792969 99.9375 C 31.238281 99.402344 30.769531 98.800781 30.382812 98.132812 C 29.992188 97.46875 29.707031 96.761719 29.515625 96.015625 C 29.324219 95.265625 29.242188 94.507812 29.261719 93.738281 C 29.285156 92.964844 29.410156 92.214844 29.640625 91.476562 C 29.875 90.742188 30.199219 90.054688 30.625 89.410156 C 31.046875 88.765625 31.550781 88.191406 32.136719 87.6875 C 32.71875 87.1875 33.363281 86.773438 34.0625 86.449219 L 140.570312 37.96875 C 141.671875 37.457031 142.832031 37.203125 144.046875 37.203125 C 145.261719 37.203125 146.421875 37.457031 147.527344 37.96875 L 254.035156 86.613281 C 254.726562 86.933594 255.363281 87.34375 255.945312 87.839844 C 256.527344 88.339844 257.027344 88.90625 257.453125 89.539062 C 257.875 90.175781 258.207031 90.859375 258.441406 91.585938 C 258.675781 92.3125 258.808594 93.058594 258.835938 93.824219 C 258.867188 94.601562 258.785156 95.367188 258.597656 96.125 C 258.414062 96.878906 258.125 97.59375 257.738281 98.265625 C 257.347656 98.941406 256.875 99.550781 256.316406 100.089844 C 255.757812 100.628906 255.132812 101.082031 254.449219 101.449219 L 147.941406 158.296875 C 146.726562 158.953125 145.425781 159.285156 144.046875 159.292969 Z M 56.175781 94.734375 L 144.046875 141.640625 L 231.921875 94.734375 L 144.046875 54.625 Z M 56.175781 94.734375 "
        fill-opacity="1" fill-rule="nonzero" />
    <g clip-path="url(#7f70c1ab0a)">
        <path fill="#000000"
            d="M 144.046875 192.441406 C 142.667969 192.433594 141.371094 192.105469 140.15625 191.449219 L 32.488281 133.4375 C 31.96875 133.203125 31.480469 132.921875 31.019531 132.589844 C 30.5625 132.253906 30.140625 131.878906 29.757812 131.457031 C 29.375 131.039062 29.039062 130.585938 28.75 130.09375 C 28.460938 129.605469 28.226562 129.09375 28.042969 128.554688 C 27.859375 128.019531 27.730469 127.46875 27.660156 126.902344 C 27.589844 126.339844 27.578125 125.773438 27.625 125.207031 C 27.667969 124.640625 27.773438 124.085938 27.933594 123.542969 C 28.09375 122.996094 28.304688 122.472656 28.574219 121.972656 C 28.839844 121.472656 29.15625 121.003906 29.519531 120.566406 C 29.882812 120.128906 30.289062 119.734375 30.734375 119.382812 C 31.179688 119.03125 31.652344 118.726562 32.160156 118.472656 C 32.667969 118.214844 33.195312 118.015625 33.746094 117.867188 C 34.292969 117.722656 34.851562 117.632812 35.417969 117.601562 C 35.984375 117.570312 36.550781 117.597656 37.109375 117.679688 C 37.671875 117.765625 38.21875 117.90625 38.75 118.105469 C 39.285156 118.300781 39.792969 118.550781 40.273438 118.851562 L 144.046875 174.707031 L 247.820312 118.851562 C 248.304688 118.550781 248.808594 118.300781 249.34375 118.105469 C 249.875 117.90625 250.421875 117.765625 250.984375 117.679688 C 251.542969 117.597656 252.109375 117.570312 252.675781 117.601562 C 253.242188 117.632812 253.800781 117.722656 254.347656 117.867188 C 254.898438 118.015625 255.425781 118.214844 255.933594 118.472656 C 256.441406 118.726562 256.914062 119.03125 257.359375 119.382812 C 257.804688 119.734375 258.210938 120.128906 258.574219 120.566406 C 258.9375 121.003906 259.253906 121.472656 259.519531 121.972656 C 259.789062 122.472656 260 122.996094 260.160156 123.542969 C 260.320312 124.085938 260.425781 124.640625 260.46875 125.207031 C 260.515625 125.773438 260.503906 126.339844 260.433594 126.902344 C 260.363281 127.46875 260.234375 128.019531 260.050781 128.554688 C 259.867188 129.09375 259.632812 129.605469 259.34375 130.09375 C 259.054688 130.585938 258.71875 131.039062 258.335938 131.457031 C 257.953125 131.878906 257.535156 132.253906 257.074219 132.589844 C 256.613281 132.921875 256.125 133.203125 255.605469 133.4375 L 147.941406 191.449219 C 146.726562 192.105469 145.425781 192.433594 144.046875 192.441406 Z M 144.046875 192.441406 "
            fill-opacity="1" fill-rule="nonzero" />
    </g>
    <g clip-path="url(#2387b42630)">
        <path fill="#000000"
            d="M 144.046875 225.589844 C 142.667969 225.585938 141.371094 225.253906 140.15625 224.597656 L 32.488281 166.585938 C 31.96875 166.351562 31.480469 166.070312 31.019531 165.738281 C 30.5625 165.402344 30.140625 165.027344 29.757812 164.609375 C 29.375 164.1875 29.039062 163.734375 28.75 163.246094 C 28.460938 162.753906 28.226562 162.242188 28.042969 161.703125 C 27.859375 161.167969 27.730469 160.617188 27.660156 160.050781 C 27.589844 159.488281 27.578125 158.921875 27.625 158.359375 C 27.667969 157.792969 27.773438 157.234375 27.933594 156.691406 C 28.09375 156.144531 28.304688 155.621094 28.574219 155.121094 C 28.839844 154.621094 29.15625 154.152344 29.519531 153.714844 C 29.882812 153.28125 30.289062 152.886719 30.734375 152.53125 C 31.179688 152.179688 31.652344 151.875 32.160156 151.621094 C 32.667969 151.363281 33.195312 151.164062 33.746094 151.019531 C 34.292969 150.871094 34.851562 150.78125 35.417969 150.75 C 35.984375 150.71875 36.550781 150.746094 37.109375 150.832031 C 37.671875 150.914062 38.21875 151.054688 38.75 151.253906 C 39.285156 151.449219 39.792969 151.699219 40.273438 152 L 144.046875 207.855469 L 247.820312 152 C 248.304688 151.699219 248.808594 151.449219 249.34375 151.253906 C 249.875 151.054688 250.421875 150.914062 250.984375 150.832031 C 251.542969 150.746094 252.109375 150.71875 252.675781 150.75 C 253.242188 150.78125 253.800781 150.871094 254.347656 151.019531 C 254.898438 151.164062 255.425781 151.363281 255.933594 151.621094 C 256.441406 151.875 256.914062 152.179688 257.359375 152.53125 C 257.804688 152.886719 258.210938 153.28125 258.574219 153.714844 C 258.9375 154.152344 259.253906 154.621094 259.519531 155.121094 C 259.789062 155.621094 260 156.144531 260.160156 156.691406 C 260.320312 157.234375 260.425781 157.792969 260.46875 158.359375 C 260.515625 158.921875 260.503906 159.488281 260.433594 160.050781 C 260.363281 160.617188 260.234375 161.167969 260.050781 161.703125 C 259.867188 162.242188 259.632812 162.753906 259.34375 163.246094 C 259.054688 163.734375 258.71875 164.1875 258.335938 164.609375 C 257.953125 165.027344 257.535156 165.402344 257.074219 165.738281 C 256.613281 166.070312 256.125 166.351562 255.605469 166.585938 L 147.941406 224.597656 C 146.726562 225.253906 145.425781 225.585938 144.046875 225.589844 Z M 144.046875 225.589844 "
            fill-opacity="1" fill-rule="nonzero" />
    </g>
    <g fill="#000000" fill-opacity="1">
        <g transform="translate(296.205387, 177.833133)">
            <g>
                <path
                    d="M 74.625 -75.140625 C 76.851562 -70.609375 77.96875 -65.554688 77.96875 -59.984375 C 77.96875 -54.421875 76.851562 -49.390625 74.625 -44.890625 C 72.40625 -40.398438 69.539062 -36.828125 66.03125 -34.171875 C 58.914062 -28.691406 51.550781 -25.953125 43.9375 -25.953125 L 27.875 -25.953125 L 27.875 -11.4375 C 27.875 -9.46875 27.804688 -7.988281 27.671875 -7 C 27.546875 -6.019531 27.144531 -4.882812 26.46875 -3.59375 C 25.257812 -1.28125 21.914062 -0.125 16.4375 -0.125 C 10.445312 -0.125 6.9375 -1.707031 5.90625 -4.875 C 5.394531 -6.332031 5.140625 -8.5625 5.140625 -11.5625 L 5.140625 -82.859375 C 5.140625 -84.828125 5.203125 -86.300781 5.328125 -87.28125 C 5.460938 -88.269531 5.867188 -89.40625 6.546875 -90.6875 C 7.742188 -93 11.085938 -94.15625 16.578125 -94.15625 L 44.0625 -94.15625 C 51.59375 -94.15625 58.914062 -91.414062 66.03125 -85.9375 C 69.539062 -83.28125 72.40625 -79.679688 74.625 -75.140625 Z M 44.0625 -48.6875 C 46.625 -48.6875 49.144531 -49.625 51.625 -51.5 C 54.113281 -53.382812 55.359375 -56.210938 55.359375 -59.984375 C 55.359375 -63.753906 54.113281 -66.601562 51.625 -68.53125 C 49.144531 -70.457031 46.582031 -71.421875 43.9375 -71.421875 L 27.875 -71.421875 L 27.875 -48.6875 Z M 44.0625 -48.6875 " />
            </g>
        </g>
    </g>
    <g fill="#000000" fill-opacity="1">
        <g transform="translate(377.389306, 177.833133)">
            <g>
                <path
                    d="M 49.328125 -95.3125 C 62.003906 -95.3125 73.007812 -90.726562 82.34375 -81.5625 C 91.675781 -72.40625 96.34375 -61.039062 96.34375 -47.46875 C 96.34375 -33.894531 91.890625 -22.332031 82.984375 -12.78125 C 74.078125 -3.226562 63.113281 1.546875 50.09375 1.546875 C 37.082031 1.546875 26.015625 -3.160156 16.890625 -12.578125 C 7.773438 -22.003906 3.21875 -33.226562 3.21875 -46.25 C 3.21875 -53.351562 4.5 -60.007812 7.0625 -66.21875 C 9.632812 -72.425781 13.0625 -77.628906 17.34375 -81.828125 C 21.625 -86.023438 26.546875 -89.320312 32.109375 -91.71875 C 37.679688 -94.113281 43.421875 -95.3125 49.328125 -95.3125 Z M 25.953125 -46.875 C 25.953125 -39.257812 28.410156 -33.070312 33.328125 -28.3125 C 38.253906 -23.5625 43.753906 -21.1875 49.828125 -21.1875 C 55.910156 -21.1875 61.394531 -23.5 66.28125 -28.125 C 71.164062 -32.75 73.609375 -38.957031 73.609375 -46.75 C 73.609375 -54.550781 71.144531 -60.804688 66.21875 -65.515625 C 61.289062 -70.222656 55.785156 -72.578125 49.703125 -72.578125 C 43.628906 -72.578125 38.148438 -70.195312 33.265625 -65.4375 C 28.390625 -60.6875 25.953125 -54.5 25.953125 -46.875 Z M 25.953125 -46.875 " />
            </g>
        </g>
    </g>
    <g fill="#000000" fill-opacity="1">
        <g transform="translate(476.94237, 177.833133)">
            <g>
                <path
                    d="M 63.96875 -24.65625 L 66.28125 -26.328125 C 69.195312 -28.046875 71.253906 -28.90625 72.453125 -28.90625 C 75.097656 -28.90625 77.960938 -26.503906 81.046875 -21.703125 C 82.929688 -18.710938 83.875 -16.316406 83.875 -14.515625 C 83.875 -12.710938 83.296875 -11.210938 82.140625 -10.015625 C 80.984375 -8.816406 79.632812 -7.742188 78.09375 -6.796875 C 76.550781 -5.859375 75.070312 -4.960938 73.65625 -4.109375 C 72.25 -3.253906 69.363281 -2.140625 65 -0.765625 C 60.632812 0.597656 56.414062 1.28125 52.34375 1.28125 C 48.28125 1.28125 44.171875 0.75 40.015625 -0.3125 C 35.859375 -1.382812 31.570312 -3.179688 27.15625 -5.703125 C 22.75 -8.234375 18.789062 -11.316406 15.28125 -14.953125 C 11.769531 -18.597656 8.878906 -23.269531 6.609375 -28.96875 C 4.347656 -34.664062 3.21875 -40.851562 3.21875 -47.53125 C 3.21875 -54.207031 4.328125 -60.265625 6.546875 -65.703125 C 8.773438 -71.140625 11.625 -75.632812 15.09375 -79.1875 C 18.5625 -82.738281 22.519531 -85.71875 26.96875 -88.125 C 35.363281 -92.75 43.800781 -95.0625 52.28125 -95.0625 C 56.300781 -95.0625 60.390625 -94.4375 64.546875 -93.1875 C 68.703125 -91.945312 71.847656 -90.6875 73.984375 -89.40625 L 77.078125 -87.609375 C 78.617188 -86.660156 79.816406 -85.890625 80.671875 -85.296875 C 82.898438 -83.492188 84.015625 -81.457031 84.015625 -79.1875 C 84.015625 -76.914062 83.113281 -74.539062 81.3125 -72.0625 C 77.96875 -67.4375 74.96875 -65.125 72.3125 -65.125 C 70.769531 -65.125 68.585938 -66.066406 65.765625 -67.953125 C 62.171875 -70.859375 57.375 -72.3125 51.375 -72.3125 C 45.8125 -72.3125 40.332031 -70.382812 34.9375 -66.53125 C 32.363281 -64.65625 30.222656 -62.003906 28.515625 -58.578125 C 26.804688 -55.148438 25.953125 -51.273438 25.953125 -46.953125 C 25.953125 -42.628906 26.804688 -38.753906 28.515625 -35.328125 C 30.222656 -31.898438 32.40625 -29.203125 35.0625 -27.234375 C 40.289062 -23.460938 45.726562 -21.578125 51.375 -21.578125 C 54.03125 -21.578125 56.535156 -21.921875 58.890625 -22.609375 C 61.242188 -23.296875 62.9375 -23.976562 63.96875 -24.65625 Z M 63.96875 -24.65625 " />
            </g>
        </g>
    </g>
    <g fill="#000000" fill-opacity="1">
        <g transform="translate(564.163721, 177.833133)">
            <g>
                <path
                    d="M 45.46875 -47.265625 C 58.570312 -34.679688 67.863281 -25.21875 73.34375 -18.875 C 76.164062 -15.707031 77.578125 -13.03125 77.578125 -10.84375 C 77.578125 -8.664062 75.863281 -6.097656 72.4375 -3.140625 C 69.019531 -0.191406 66.21875 1.28125 64.03125 1.28125 C 61.851562 1.28125 59.222656 -0.515625 56.140625 -4.109375 L 27.875 -36.359375 L 27.875 -11.296875 C 27.875 -9.242188 27.804688 -7.742188 27.671875 -6.796875 C 27.546875 -5.859375 27.144531 -4.75 26.46875 -3.46875 C 25.257812 -1.15625 21.914062 0 16.4375 0 C 10.445312 0 6.9375 -1.625 5.90625 -4.875 C 5.394531 -6.25 5.140625 -8.4375 5.140625 -11.4375 L 5.140625 -82.859375 C 5.140625 -84.828125 5.203125 -86.300781 5.328125 -87.28125 C 5.460938 -88.269531 5.867188 -89.40625 6.546875 -90.6875 C 7.742188 -93 11.085938 -94.15625 16.578125 -94.15625 C 22.566406 -94.15625 26.117188 -92.570312 27.234375 -89.40625 C 27.660156 -87.945312 27.875 -85.71875 27.875 -82.71875 L 27.875 -58.1875 C 39.519531 -71.289062 48.941406 -82.039062 56.140625 -90.4375 C 59.128906 -93.945312 61.738281 -95.703125 63.96875 -95.703125 C 66.195312 -95.703125 69.019531 -94.222656 72.4375 -91.265625 C 75.863281 -88.304688 77.578125 -85.734375 77.578125 -83.546875 C 77.578125 -81.367188 76.296875 -78.78125 73.734375 -75.78125 C 68.765625 -70.050781 61.054688 -62.175781 50.609375 -52.15625 Z M 45.46875 -47.265625 " />
            </g>
        </g>
    </g>
    <g fill="#000000" fill-opacity="1">
        <g transform="translate(646.246822, 177.833133)">
            <g>
                <path
                    d="M 27.875 -22.734375 L 67.4375 -22.734375 C 69.40625 -22.734375 70.878906 -22.664062 71.859375 -22.53125 C 72.847656 -22.40625 73.988281 -22.003906 75.28125 -21.328125 C 77.582031 -20.128906 78.734375 -16.785156 78.734375 -11.296875 C 78.734375 -5.304688 77.148438 -1.796875 73.984375 -0.765625 C 72.535156 -0.253906 70.3125 0 67.3125 0 L 16.4375 0 C 10.445312 0 6.9375 -1.625 5.90625 -4.875 C 5.394531 -6.25 5.140625 -8.4375 5.140625 -11.4375 L 5.140625 -82.859375 C 5.140625 -87.222656 5.953125 -90.195312 7.578125 -91.78125 C 9.203125 -93.363281 12.285156 -94.15625 16.828125 -94.15625 L 67.4375 -94.15625 C 69.40625 -94.15625 70.878906 -94.085938 71.859375 -93.953125 C 72.847656 -93.828125 73.988281 -93.425781 75.28125 -92.75 C 77.582031 -91.539062 78.734375 -88.195312 78.734375 -82.71875 C 78.734375 -76.726562 77.148438 -73.21875 73.984375 -72.1875 C 72.535156 -71.675781 70.3125 -71.421875 67.3125 -71.421875 L 27.875 -71.421875 L 27.875 -58.453125 L 53.3125 -58.453125 C 55.28125 -58.453125 56.753906 -58.382812 57.734375 -58.25 C 58.722656 -58.125 59.859375 -57.71875 61.140625 -57.03125 C 63.453125 -55.832031 64.609375 -52.492188 64.609375 -47.015625 C 64.609375 -41.015625 62.984375 -37.503906 59.734375 -36.484375 C 58.273438 -35.960938 56.046875 -35.703125 53.046875 -35.703125 L 27.875 -35.703125 Z M 27.875 -22.734375 " />
            </g>
        </g>
    </g>
    <g fill="#000000" fill-opacity="1">
        <g transform="translate(728.201497, 177.833133)">
            <g>
                <path
                    d="M 11.296875 -94.28125 L 82.71875 -94.28125 C 85.457031 -94.28125 87.46875 -93.957031 88.75 -93.3125 C 90.039062 -92.675781 90.898438 -91.671875 91.328125 -90.296875 C 91.753906 -88.929688 91.96875 -87.132812 91.96875 -84.90625 C 91.96875 -82.675781 91.753906 -80.894531 91.328125 -79.5625 C 90.898438 -78.238281 90.171875 -77.320312 89.140625 -76.8125 C 87.597656 -76.039062 85.414062 -75.65625 82.59375 -75.65625 L 58.0625 -75.65625 L 58.0625 -11.046875 C 58.0625 -9.078125 57.992188 -7.617188 57.859375 -6.671875 C 57.734375 -5.734375 57.347656 -4.644531 56.703125 -3.40625 C 56.066406 -2.164062 54.9375 -1.285156 53.3125 -0.765625 C 51.6875 -0.253906 49.546875 0 46.890625 0 C 44.234375 0 42.113281 -0.253906 40.53125 -0.765625 C 38.945312 -1.285156 37.832031 -2.164062 37.1875 -3.40625 C 36.539062 -4.644531 36.15625 -5.753906 36.03125 -6.734375 C 35.90625 -7.722656 35.84375 -9.203125 35.84375 -11.171875 L 35.84375 -75.65625 L 11.171875 -75.65625 C 8.429688 -75.65625 6.421875 -75.972656 5.140625 -76.609375 C 3.859375 -77.253906 3 -78.265625 2.5625 -79.640625 C 2.132812 -81.015625 1.921875 -82.8125 1.921875 -85.03125 C 1.921875 -87.257812 2.132812 -89.035156 2.5625 -90.359375 C 3 -91.691406 3.726562 -92.613281 4.75 -93.125 C 6.289062 -93.894531 8.472656 -94.28125 11.296875 -94.28125 Z M 11.296875 -94.28125 " />
            </g>
        </g>
    </g>
    <g fill="#000000" fill-opacity="1">
        <g transform="translate(822.10253, 177.833133)">
            <g>
                <path
                    d="M 63.96875 -24.65625 L 66.28125 -26.328125 C 69.195312 -28.046875 71.253906 -28.90625 72.453125 -28.90625 C 75.097656 -28.90625 77.960938 -26.503906 81.046875 -21.703125 C 82.929688 -18.710938 83.875 -16.316406 83.875 -14.515625 C 83.875 -12.710938 83.296875 -11.210938 82.140625 -10.015625 C 80.984375 -8.816406 79.632812 -7.742188 78.09375 -6.796875 C 76.550781 -5.859375 75.070312 -4.960938 73.65625 -4.109375 C 72.25 -3.253906 69.363281 -2.140625 65 -0.765625 C 60.632812 0.597656 56.414062 1.28125 52.34375 1.28125 C 48.28125 1.28125 44.171875 0.75 40.015625 -0.3125 C 35.859375 -1.382812 31.570312 -3.179688 27.15625 -5.703125 C 22.75 -8.234375 18.789062 -11.316406 15.28125 -14.953125 C 11.769531 -18.597656 8.878906 -23.269531 6.609375 -28.96875 C 4.347656 -34.664062 3.21875 -40.851562 3.21875 -47.53125 C 3.21875 -54.207031 4.328125 -60.265625 6.546875 -65.703125 C 8.773438 -71.140625 11.625 -75.632812 15.09375 -79.1875 C 18.5625 -82.738281 22.519531 -85.71875 26.96875 -88.125 C 35.363281 -92.75 43.800781 -95.0625 52.28125 -95.0625 C 56.300781 -95.0625 60.390625 -94.4375 64.546875 -93.1875 C 68.703125 -91.945312 71.847656 -90.6875 73.984375 -89.40625 L 77.078125 -87.609375 C 78.617188 -86.660156 79.816406 -85.890625 80.671875 -85.296875 C 82.898438 -83.492188 84.015625 -81.457031 84.015625 -79.1875 C 84.015625 -76.914062 83.113281 -74.539062 81.3125 -72.0625 C 77.96875 -67.4375 74.96875 -65.125 72.3125 -65.125 C 70.769531 -65.125 68.585938 -66.066406 65.765625 -67.953125 C 62.171875 -70.859375 57.375 -72.3125 51.375 -72.3125 C 45.8125 -72.3125 40.332031 -70.382812 34.9375 -66.53125 C 32.363281 -64.65625 30.222656 -62.003906 28.515625 -58.578125 C 26.804688 -55.148438 25.953125 -51.273438 25.953125 -46.953125 C 25.953125 -42.628906 26.804688 -38.753906 28.515625 -35.328125 C 30.222656 -31.898438 32.40625 -29.203125 35.0625 -27.234375 C 40.289062 -23.460938 45.726562 -21.578125 51.375 -21.578125 C 54.03125 -21.578125 56.535156 -21.921875 58.890625 -22.609375 C 61.242188 -23.296875 62.9375 -23.976562 63.96875 -24.65625 Z M 63.96875 -24.65625 " />
            </g>
        </g>
    </g>
    <g fill="#000000" fill-opacity="1">
        <g transform="translate(909.323881, 177.833133)">
            <g>
                <path
                    d="M 105.203125 -90.5625 C 105.890625 -89.269531 106.296875 -88.109375 106.421875 -87.078125 C 106.546875 -86.054688 106.609375 -84.5625 106.609375 -82.59375 L 106.609375 -11.296875 C 106.609375 -5.390625 104.984375 -1.925781 101.734375 -0.90625 C 100.109375 -0.382812 98.050781 -0.125 95.5625 -0.125 C 93.082031 -0.125 91.113281 -0.335938 89.65625 -0.765625 C 88.195312 -1.191406 87.082031 -1.707031 86.3125 -2.3125 C 85.550781 -2.914062 84.953125 -3.769531 84.515625 -4.875 C 84.085938 -6.332031 83.875 -8.5625 83.875 -11.5625 L 83.875 -54.59375 C 81.738281 -51.9375 78.613281 -47.71875 74.5 -41.9375 C 70.394531 -36.15625 67.785156 -32.535156 66.671875 -31.078125 C 65.554688 -29.628906 64.785156 -28.625 64.359375 -28.0625 C 63.929688 -27.507812 62.878906 -26.738281 61.203125 -25.75 C 59.535156 -24.769531 57.738281 -24.28125 55.8125 -24.28125 C 53.882812 -24.28125 52.128906 -24.726562 50.546875 -25.625 C 48.960938 -26.519531 47.828125 -27.398438 47.140625 -28.265625 L 46.109375 -29.671875 C 44.398438 -31.816406 41.019531 -36.378906 35.96875 -43.359375 C 30.914062 -50.335938 28.175781 -54.082031 27.75 -54.59375 L 27.75 -11.296875 C 27.75 -9.328125 27.679688 -7.847656 27.546875 -6.859375 C 27.421875 -5.878906 27.015625 -4.789062 26.328125 -3.59375 C 25.046875 -1.28125 21.707031 -0.125 16.3125 -0.125 C 11.09375 -0.125 7.835938 -1.28125 6.546875 -3.59375 C 5.867188 -4.789062 5.460938 -5.90625 5.328125 -6.9375 C 5.203125 -7.96875 5.140625 -9.507812 5.140625 -11.5625 L 5.140625 -82.859375 C 5.140625 -84.828125 5.203125 -86.300781 5.328125 -87.28125 C 5.460938 -88.269531 5.867188 -89.40625 6.546875 -90.6875 C 7.835938 -92.914062 11.179688 -94.03125 16.578125 -94.03125 C 18.878906 -94.03125 20.863281 -93.75 22.53125 -93.1875 C 24.207031 -92.632812 25.300781 -92.054688 25.8125 -91.453125 L 26.59375 -90.6875 L 55.75 -52.40625 C 70.300781 -71.675781 80.019531 -84.394531 84.90625 -90.5625 C 86.363281 -92.875 89.8125 -94.03125 95.25 -94.03125 C 100.6875 -94.03125 104.003906 -92.875 105.203125 -90.5625 Z M 105.203125 -90.5625 " />
            </g>
        </g>
    </g>
    <g fill="#000000" fill-opacity="1">
        <g transform="translate(1021.080234, 177.833133)">
            <g>
                <path
                    d="M 6.546875 -13.234375 C 4.328125 -15.972656 3.21875 -18.429688 3.21875 -20.609375 C 3.21875 -22.796875 5.054688 -25.6875 8.734375 -29.28125 C 10.878906 -31.34375 13.148438 -32.375 15.546875 -32.375 C 17.941406 -32.375 21.28125 -30.234375 25.5625 -25.953125 C 26.757812 -24.492188 28.472656 -23.097656 30.703125 -21.765625 C 32.929688 -20.441406 34.984375 -19.78125 36.859375 -19.78125 C 44.828125 -19.78125 48.8125 -23.035156 48.8125 -29.546875 C 48.8125 -31.515625 47.71875 -33.160156 45.53125 -34.484375 C 43.351562 -35.816406 40.632812 -36.78125 37.375 -37.375 C 34.125 -37.976562 30.613281 -38.941406 26.84375 -40.265625 C 23.070312 -41.597656 19.5625 -43.160156 16.3125 -44.953125 C 13.0625 -46.753906 10.34375 -49.601562 8.15625 -53.5 C 5.96875 -57.394531 4.875 -62.082031 4.875 -67.5625 C 4.875 -75.101562 7.675781 -81.675781 13.28125 -87.28125 C 18.894531 -92.894531 26.539062 -95.703125 36.21875 -95.703125 C 41.363281 -95.703125 46.050781 -95.035156 50.28125 -93.703125 C 54.519531 -92.378906 57.457031 -91.03125 59.09375 -89.65625 L 62.296875 -87.21875 C 64.953125 -84.738281 66.28125 -82.640625 66.28125 -80.921875 C 66.28125 -79.210938 65.253906 -76.859375 63.203125 -73.859375 C 60.285156 -69.578125 57.285156 -67.4375 54.203125 -67.4375 C 52.410156 -67.4375 50.1875 -68.289062 47.53125 -70 C 47.269531 -70.175781 46.773438 -70.601562 46.046875 -71.28125 C 45.316406 -71.96875 44.65625 -72.53125 44.0625 -72.96875 C 42.257812 -74.070312 39.96875 -74.625 37.1875 -74.625 C 34.40625 -74.625 32.09375 -73.960938 30.25 -72.640625 C 28.40625 -71.316406 27.484375 -69.472656 27.484375 -67.109375 C 27.484375 -64.753906 28.578125 -62.847656 30.765625 -61.390625 C 32.953125 -59.941406 35.671875 -58.957031 38.921875 -58.4375 C 42.171875 -57.925781 45.722656 -57.132812 49.578125 -56.0625 C 53.429688 -55 56.984375 -53.695312 60.234375 -52.15625 C 63.492188 -50.613281 66.210938 -47.9375 68.390625 -44.125 C 70.578125 -40.3125 71.671875 -35.617188 71.671875 -30.046875 C 71.671875 -24.484375 70.554688 -19.582031 68.328125 -15.34375 C 66.109375 -11.101562 63.203125 -7.832031 59.609375 -5.53125 C 52.671875 -0.988281 45.257812 1.28125 37.375 1.28125 C 33.351562 1.28125 29.539062 0.789062 25.9375 -0.1875 C 22.34375 -1.175781 19.4375 -2.398438 17.21875 -3.859375 C 12.675781 -6.597656 9.503906 -9.25 7.703125 -11.8125 Z M 6.546875 -13.234375 " />
            </g>
        </g>
    </g>
</svg>
